<svg width="22" height="18" viewBox="0 0 22 18" fill="none" xmlns="http://www.w3.org/2000/svg">
<path d="M15.4318 0.512573C16.4522 0.582585 17.3934 0.980071 18.1369 1.64246L18.3596 1.8407L18.6389 1.74011C19.4355 1.45357 20.1894 1.06526 20.8849 0.581909C21.0185 0.48912 21.1979 0.487282 21.3332 0.578003C21.4669 0.667705 21.526 0.825722 21.4894 0.973511C21.1947 2.16567 20.6038 3.26237 19.7707 4.1698L19.6203 4.33386L19.6418 4.55554C19.6547 4.69019 19.6609 4.82557 19.6613 4.95984C19.6611 7.44188 19.1086 9.6642 18.0314 11.579C17.0312 13.357 15.5689 14.8385 13.8029 15.8622C11.9547 16.9334 9.7955 17.5018 7.55487 17.5018C7.53709 17.5018 7.5189 17.5019 7.50116 17.5018C5.33294 17.493 3.12893 16.9469 1.10077 15.9149L0.697449 15.702C0.539509 15.6156 0.467897 15.4385 0.513855 15.2762C0.560496 15.1124 0.71891 14.9928 0.90448 14.9999C2.51543 15.0631 4.13288 14.7435 5.59589 14.0878L6.51581 13.6757L5.63104 13.1932C1.95434 11.1866 0.925768 8.19247 0.731628 5.89734C0.497488 3.12871 1.41388 0.830224 1.44647 0.749878V0.748901C1.4838 0.657305 1.55718 0.582833 1.65057 0.542847L1.75018 0.515503C1.89033 0.495004 2.02907 0.550044 2.11444 0.655151C3.76854 2.69192 6.19653 5.11062 10.0676 5.45105L10.6135 5.4989L10.6115 4.95105C10.6066 3.66392 11.1681 2.4404 12.1574 1.59265C13.066 0.813953 14.2273 0.430039 15.4318 0.512573ZM18.884 4.95984C18.8832 4.73371 18.8611 4.50385 18.8176 4.27917C18.7943 4.15916 18.8328 4.03379 18.924 3.94519C19.1736 3.70265 19.4028 3.44241 19.6096 3.16687L20.6349 1.79968L19.0344 2.39832C18.806 2.48368 18.5739 2.56105 18.3391 2.63074C18.1896 2.67514 18.0294 2.62806 17.9299 2.5155C17.2759 1.77487 16.3666 1.32947 15.3762 1.2616C14.3856 1.19374 13.424 1.51065 12.673 2.15417C11.9022 2.81473 11.4413 3.75479 11.3928 4.75769L11.3889 4.95593V5.86707C11.3888 6.06738 11.2219 6.24205 11.0002 6.24207C8.87384 6.24207 6.91022 5.66892 5.15448 4.53796C4.13536 3.88148 3.27507 3.09321 2.57831 2.35437L1.9201 1.6571L1.72479 2.59558C1.54373 3.46484 1.39623 4.63358 1.51093 5.89636C1.66541 7.59629 2.24776 9.07805 3.25897 10.3143C4.26752 11.5473 5.6831 12.5125 7.46991 13.2167C7.60512 13.27 7.69522 13.3898 7.71014 13.5243C7.72491 13.6585 7.66307 13.7934 7.54413 13.8729C6.56779 14.5258 5.49762 15.0192 4.36249 15.3387H4.36151C4.33169 15.3472 4.30197 15.3552 4.27264 15.3632L2.46893 15.8534L4.27655 16.329C7.4258 17.1588 10.6764 16.7985 13.4035 15.2177C16.904 13.1885 18.8839 9.42933 18.884 4.96179V4.95984Z" fill="white" stroke="white"/>
</svg>
