<svg width="13" height="22" viewBox="0 0 13 22" fill="none" xmlns="http://www.w3.org/2000/svg">
<path d="M9.04785 0.5H12.1045C12.3265 0.500048 12.5 0.677609 12.5 0.888672V4.93359C12.5 5.14474 12.3265 5.32317 12.1045 5.32324H9.04785C8.70717 5.32324 8.42387 5.5982 8.42383 5.94531V8.59082H12.1045C12.2277 8.59083 12.3426 8.64685 12.417 8.74121C12.4911 8.83534 12.517 8.95745 12.4883 9.07227L11.4697 13.1182C11.4265 13.2894 11.2691 13.4131 11.085 13.4131H8.42383V21.1152C8.42363 21.3263 8.25027 21.5039 8.02832 21.5039H3.95215C3.73041 21.5037 3.55684 21.3261 3.55664 21.1152V13.4131H0.895508C0.673495 13.413 0.5 13.2356 0.5 13.0244V8.97949C0.5 8.76835 0.67351 8.59086 0.895508 8.59082H3.55664V5.94531C3.55666 2.94677 6.01723 0.5 9.04785 0.5ZM9.04785 1.27734C6.45975 1.27734 4.3477 3.36759 4.34766 5.94531V8.97949C4.34754 9.19057 4.17411 9.36816 3.95215 9.36816H1.29102V12.6357H3.95215C4.17417 12.6357 4.34761 12.8133 4.34766 13.0244V20.7266H7.63281V13.0244C7.63286 12.8133 7.80632 12.6358 8.02832 12.6357H10.7754L10.8711 12.2578L11.4424 9.99023L11.5986 9.36816H8.02832C7.80637 9.36809 7.63292 9.19051 7.63281 8.97949V5.94531C7.63286 5.17733 8.26474 4.54492 9.04785 4.54492H11.709V1.27734H9.04785Z" fill="white" stroke="white"/>
</svg>
