<svg width="22" height="22" viewBox="0 0 22 22" fill="none" xmlns="http://www.w3.org/2000/svg">
<path d="M5.94434 0.5H16.0557C19.0571 0.500002 21.5 2.94314 21.5 5.94531V16.0586C21.4999 19.0607 19.0571 21.5039 16.0557 21.5039H5.94434C2.94294 21.5039 0.500127 19.0607 0.5 16.0586V5.94531C0.500014 2.94314 2.94287 0.500002 5.94434 0.5ZM5.94434 1.27734C3.37041 1.27735 1.27736 3.37121 1.27734 5.94531V16.0586C1.27747 18.6326 3.37053 20.7256 5.94434 20.7256H16.0557C18.6295 20.7256 20.7225 18.6326 20.7227 16.0586V5.94531C20.7226 3.37116 18.6295 1.27735 16.0557 1.27734H5.94434Z" fill="white" stroke="white"/>
<path d="M10.3937 6.57239C10.8251 6.50842 11.2629 6.5084 11.6945 6.57239C12.6428 6.71309 13.5008 7.14523 14.1788 7.82336C14.8567 8.50145 15.2881 9.35923 15.4288 10.3077C15.6027 11.4801 15.3105 12.6478 14.6046 13.5997C13.8987 14.5516 12.8666 15.1709 11.6945 15.3448H11.6935C11.4726 15.3776 11.2521 15.3937 11.0333 15.3937C10.0906 15.3937 9.17583 15.0934 8.40247 14.5197C7.45092 13.8136 6.83226 12.7817 6.65833 11.6095C6.48446 10.4371 6.77753 9.26954 7.48352 8.3175C8.18953 7.36548 9.22137 6.74628 10.3937 6.57239ZM11.0441 7.30188C10.865 7.30188 10.6856 7.31558 10.5079 7.34192C9.54293 7.48506 8.68875 7.99678 8.10754 8.7804C7.52638 9.56408 7.28474 10.5301 7.42786 11.4952C7.57097 12.4601 8.08195 13.3144 8.86536 13.8956C9.64887 14.4769 10.6151 14.7187 11.5802 14.5753C13.5746 14.2794 14.956 12.4165 14.6603 10.422C14.4225 8.81921 13.1828 7.57969 11.5802 7.34192C11.4024 7.31549 11.2231 7.3019 11.0441 7.30188Z" fill="white" stroke="white"/>
<path d="M16.5612 5.05054C16.6624 5.05054 16.7648 5.09305 16.8365 5.16479C16.908 5.23644 16.9498 5.33813 16.9498 5.43921C16.9498 5.51504 16.9264 5.5914 16.8844 5.65503L16.8356 5.7146C16.7639 5.78601 16.6622 5.82788 16.5612 5.82788C16.4599 5.82787 16.3585 5.78535 16.2867 5.71362H16.2858C16.2143 5.64181 16.1725 5.54044 16.1725 5.43921C16.1725 5.33774 16.215 5.23662 16.2867 5.16479C16.3584 5.0931 16.4599 5.05055 16.5612 5.05054Z" fill="white" stroke="white"/>
</svg>
